<svg xmlns="http://www.w3.org/2000/svg" class="game-lettering" width="374.4316" height="94.2480" viewBox="0 0 374.4316 94.2480" role="img" aria-label="ATK HUB" data-source-text="ATK HUB" data-source-font="Edo SZ" data-font-size="107.1" style="overflow:visible"><title>ATK HUB</title><path d="M35.403662109375 10.517554687499995Q35.97890625 13.184595703124998 42.515771484374994 13.184595703124998L49.627880859375 44.30007421875H55.850976562499994V45.189087890625L50.516894531249996 46.078101562499995V46.967115234374994Q53.183935546875 46.967115234374994 53.183935546875 48.745142578125H60.296044921874994V49.63415625Q60.296044921874994 51.62136328125 51.405908203124994 53.1902109375L53.183935546875 58.52429296875L52.294921875 61.19133398437499L53.183935546875 66.525416015625L52.294921875 67.41442968749999H53.183935546875L52.294921875 68.303443359375L53.183935546875 78.97160742187499V84.305689453125L52.294921875 83.41667578124999H51.405908203124994L54.07294921875 96.75188085937499H52.294921875Q52.294921875 94.08483984374999 50.516894531249996 94.08483984374999V94.973853515625L51.405908203124994 97.64089453125H50.516894531249996L49.627880859375 96.75188085937499H48.7388671875Q48.7388671875 99.418921875 46.960839843749994 99.418921875L42.515771484374994 84.305689453125H41.626757812499996V87.86174414062499H40.737744140625L38.959716796875 77.193580078125L41.626757812499996 78.97160742187499V78.08259375Q40.89462890625 70.08147070312499 38.959716796875 70.08147070312499L39.84873046875 69.19245703125V66.525416015625H38.070703125V69.19245703125H37.181689453124996V65.63640234374999L38.070703125 64.747388671875H37.181689453124996L36.29267578125 65.63640234374999V62.08034765625H37.181689453124996L38.070703125 62.969361328125H38.959716796875L38.070703125 62.08034765625V56.74626562499999L18.51240234375 61.19133398437499V62.969361328125L24.735498046874998 61.19133398437499L28.291552734375 62.08034765625L32.736621093749996 61.19133398437499V62.969361328125Q14.067333984374999 66.316236328125 14.067333984374999 71.85949804687499Q11.714062499999999 81.6386484375 8.733251953125 84.305689453125V86.083716796875H6.066210937499999L5.177197265625 85.19470312499999H4.2881835937499995V86.083716796875L1.621142578125 84.305689453125L3.399169921875 78.97160742187499H2.5101562499999996Q-0.15688476562499998 78.97160742187499 -0.15688476562499998 86.083716796875L-1.934912109375 84.305689453125L-1.0458984375 78.97160742187499L-3.7129394531249997 76.30456640624999L11.40029296875 39.855005859375H12.289306640625Q12.289306640625 42.522046875 14.067333984374999 42.522046875L14.95634765625 38.076978515625L14.067333984374999 38.9659921875H13.178320312499999V35.4099375L14.067333984374999 30.964869140624998L14.95634765625 31.853882812499997H15.845361328125L14.95634765625 30.964869140624998V30.07585546875L16.734375 26.519800781249998H17.623388671875L18.51240234375 27.408814453124997H19.401416015625V26.519800781249998Q19.401416015625 24.7417734375 16.734375 24.7417734375L21.179443359375 12.295582031249992H24.735498046874998L23.846484375 13.184595703124998V14.073609375000004Q30.017285156249997 10.517554687499995 35.403662109375 10.517554687499995ZM30.069580078125 30.964869140624998 22.957470703124997 49.63415625H24.735498046874998Q33.625634765625 49.63415625 34.5146484375 44.30007421875L30.95859375 30.964869140624998ZM22.06845703125 36.298951171875 20.290429687499998 42.522046875 19.401416015625 41.633033203124995H18.51240234375L19.401416015625 45.189087890625H20.290429687499998L22.957470703124997 37.187964843749995V36.298951171875ZM12.289306640625 44.30007421875 11.40029296875 45.189087890625V46.967115234374994H12.289306640625L13.178320312499999 44.30007421875ZM17.623388671875 47.85612890625 16.734375 51.412183593749994H17.623388671875L18.51240234375 50.523169921874995V47.85612890625ZM9.622265624999999 48.745142578125 8.733251953125 52.30119726562499H9.622265624999999L11.40029296875 48.745142578125ZM24.735498046874998 51.412183593749994V52.30119726562499H26.513525390625Q34.5146484375 51.412183593749994 34.5146484375 49.63415625H33.625634765625ZM37.181689453124996 70.970484375H38.959716796875V76.30456640624999H38.070703125ZM49.627880859375 77.193580078125V78.97160742187499L50.516894531249996 82.527662109375H51.405908203124994V80.74963476562499L50.516894531249996 77.193580078125ZM40.737744140625 79.86062109375V81.6386484375L43.40478515625 80.74963476562499V78.97160742187499ZM117.03603515625 12.975416015625001 119.703076171875 13.864429687499992V15.642457031250004H117.03603515625L118.8140625 18.309498046874992Q116.879150390625 22.75456640625 104.58984375 22.75456640625L98.36674804687499 23.643580078124998L97.477734375 26.31062109375H98.36674804687499Q95.69970703125 32.638306640625 87.698583984375 83.20749609375L90.365625 94.764673828125H89.476611328125Q87.489404296875 94.764673828125 85.920556640625 85.874537109375L86.8095703125 76.984400390625V76.09538671874999H85.920556640625V77.87341406249999Q83.253515625 77.87341406249999 83.253515625 79.65144140625V80.54045507812499L85.03154296875 94.764673828125V95.65368749999999H83.253515625L79.6974609375 92.986646484375L78.808447265625 93.87566015624999H77.91943359375Q74.36337890625 86.188306640625 74.36337890625 80.54045507812499L75.252392578125 81.42946875H76.14140625L74.36337890625 75.206373046875L77.030419921875 74.317359375V69.872291015625H75.252392578125V68.98327734374999Q77.91943359375 68.98327734374999 77.91943359375 67.20524999999999V66.316236328125H76.14140625Q76.14140625 59.204126953125 78.808447265625 59.204126953125V47.646949218749995Q80.22041015625 46.39187109375 82.364501953125 28.977662109374997L76.14140625 29.866675781249995L63.69521484375 28.977662109374997V28.088648437499998L68.140283203125 27.199634765625V28.088648437499998L69.029296875 27.199634765625H82.364501953125V24.532593749999997L68.140283203125 26.31062109375L67.25126953125 25.421607421874995H66.362255859375L61.028173828125 26.31062109375L58.3611328125 24.532593749999997L59.250146484375 20.087525390625004L58.3611328125 19.198511718749998Q58.3611328125 14.753443359374998 69.029296875 14.753443359374998ZM111.70195312499999 15.642457031250004V16.531470703124995H115.2580078125V15.642457031250004ZM78.808447265625 65.42722265625 77.030419921875 84.98552343749999H78.808447265625L77.91943359375 80.54045507812499V78.762427734375L79.6974609375 76.09538671874999H78.808447265625L79.6974609375 75.206373046875V74.317359375L78.808447265625 73.42834570312499V72.53933203125L80.586474609375 68.98327734374999L79.6974609375 65.42722265625ZM162.5326171875 11.772632812499992 163.421630859375 12.661646484374998V13.550660156250004L162.5326171875 14.439673828124995L161.643603515625 13.550660156250004H160.75458984375L152.753466796875 18.884742187499995H151.864453125Q151.864453125 16.531470703124995 162.5326171875 11.772632812499992ZM127.861083984375 13.550660156250004 128.75009765625 21.551783203124998Q130.528125 21.551783203124998 131.417138671875 16.217701171874992H132.30615234375L133.195166015625 19.773755859375L130.528125 33.997974609375L140.307275390625 26.885865234374997H141.1962890625L130.528125 36.665015624999995V37.554029296875L150.97543945312498 22.440796874999997L151.864453125 23.329810546874995Q163.839990234375 13.550660156250004 167.86669921875 13.550660156250004H168.75571289062498L169.6447265625 17.106714843749998L162.5326171875 24.21882421875H163.421630859375Q165.199658203125 20.66276953125 168.75571289062498 20.66276953125L169.6447265625 21.551783203124998V20.66276953125L168.75571289062498 19.773755859375L169.6447265625 18.884742187499995H172.311767578125L173.20078124999998 21.551783203124998Q166.50703125 24.689478515624998 142.085302734375 44.666138671875Q148.09921875 57.79216406249999 163.421630859375 80.22668554687499V82.004712890625L162.5326171875 88.22780859375L161.643603515625 87.33879492187499H160.75458984375L159.86557617187498 90.894849609375H156.309521484375V89.11682226562499H155.42050781249998V90.894849609375H153.64248046875Q153.64248046875 87.757154296875 134.0841796875 58.00134375L132.30615234375 52.66726171875L127.861083984375 53.556275390625Q126.710595703125 74.9448984375 122.26552734375 80.22668554687499V81.11569921875L113.375390625 80.22668554687499V77.55964453125L114.264404296875 71.33654882812499Q111.59736328125 71.33654882812499 111.59736328125 66.002466796875Q113.06162109374999 57.112330078125 114.52587890625 57.112330078125L113.636865234375 56.22331640624999Q116.30390625 31.749292968749998 118.970947265625 26.885865234374997L118.08193359375 24.21882421875L120.748974609375 17.106714843749998V16.217701171874992L119.85996093749999 15.328687500000001V14.439673828124995H121.63798828124999V20.66276953125H122.527001953125L123.416015625 17.995728515625004L122.527001953125 17.106714843749998V16.217701171874992Q123.416015625 13.550660156250004 127.861083984375 13.550660156250004ZM150.97543945312498 18.884742187499995H151.864453125L148.3083984375 22.440796874999997H147.419384765625ZM120.748974609375 23.329810546874995 119.85996093749999 28.663892578125V32.219947265624995H120.748974609375L121.63798828124999 24.21882421875V23.329810546874995ZM146.53037109375 22.440796874999997H147.419384765625L142.085302734375 26.885865234374997H141.1962890625ZM158.087548828125 25.996851562499998 154.531494140625 28.663892578125 153.64248046875 29.55290625V30.441919921874998H154.531494140625L158.087548828125 27.774878906249995L158.9765625 26.885865234374997V25.996851562499998ZM142.97431640625 76.670630859375H143.863330078125L146.53037109375 79.337671875H145.641357421875ZM146.53037109375 79.337671875Q148.779052734375 79.337671875 150.97543945312498 88.22780859375V89.11682226562499H150.08642578125ZM209.964111328125 14.073609375000004H210.85312499999998V16.740650390624992H211.74213867187498V14.962623046874995H215.29819335937498Q217.076220703125 14.962623046874995 217.076220703125 20.296705078125L219.74326171874998 21.18571875Q219.74326171874998 18.518677734375004 221.5212890625 18.518677734375004L222.410302734375 19.407691406249995V20.296705078125L217.965234375 44.30007421875L231.300439453125 43.411060546875H240.190576171875L241.07958984375 38.9659921875L240.190576171875 38.076978515625H241.96860351562498L241.07958984375 31.853882812499997V30.964869140624998H242.85761718749998L241.96860351562498 30.07585546875V28.297828124999995H243.746630859375V26.519800781249998H241.96860351562498V25.630787109375H243.746630859375L242.85761718749998 24.7417734375V18.518677734375004L243.746630859375 19.407691406249995H244.63564453125V15.851636718750001L243.746630859375 14.962623046874995V14.073609375000004H246.41367187499998L241.96860351562498 44.30007421875Q243.746630859375 44.30007421875 247.30268554687498 14.962623046874995L250.85874023437498 14.073609375000004Q251.74775390624998 21.18571875 253.52578125 21.18571875H254.414794921875Q254.414794921875 18.518677734375004 256.19282226562495 18.518677734375004H257.0818359375Q252.636767578125 49.268091796875 243.746630859375 90.52878515625H242.85761718749998L241.96860351562498 89.63977148437499L242.85761718749998 88.7507578125V81.6386484375H241.96860351562498L239.3015625 90.52878515625H236.634521484375Q234.856494140625 90.52878515625 234.856494140625 85.19470312499999H233.96748046874998V88.7507578125H233.07846679687498Q231.300439453125 88.7507578125 231.300439453125 86.083716796875Q231.300439453125 79.65144140625 236.634521484375 55.857251953125H235.7455078125L224.18833007812498 56.74626562499999L216.18720703124998 55.857251953125Q213.520166015625 77.193580078125 210.85312499999998 84.305689453125H208.186083984375Q206.40805664062498 84.305689453125 206.40805664062498 77.193580078125H205.51904296875L204.630029296875 83.41667578124999L202.85200195312498 81.6386484375V78.97160742187499L203.741015625 78.08259375V77.193580078125L202.85200195312498 76.30456640624999H201.96298828124998L201.073974609375 77.193580078125H200.1849609375L199.295947265625 73.637525390625Q202.85200195312498 43.620240234375 207.29707031249998 30.07585546875H208.186083984375L207.29707031249998 29.186841796875V26.519800781249998L209.964111328125 16.740650390624992H209.07509765625ZM210.85312499999998 17.629664062499998V23.852759765624995H211.74213867187498V17.629664062499998ZM209.964111328125 24.7417734375 209.07509765625 31.853882812499997V33.63191015625H209.964111328125L210.85312499999998 26.519800781249998V24.7417734375ZM208.186083984375 34.520923828125V38.076978515625H209.07509765625V34.520923828125ZM207.29707031249998 38.9659921875 206.40805664062498 43.411060546875V44.30007421875H207.29707031249998L208.186083984375 40.74401953125V38.9659921875ZM205.51904296875 47.85612890625V51.412183593749994H206.40805664062498V47.85612890625ZM239.3015625 56.74626562499999 238.41254882812498 62.08034765625V62.969361328125H239.3015625L240.190576171875 58.52429296875V56.74626562499999ZM237.52353515624998 63.858374999999995V67.41442968749999H238.41254882812498V63.858374999999995ZM243.746630859375 73.637525390625 242.85761718749998 78.08259375V80.74963476562499H243.746630859375L244.63564453125 74.52653906249999V73.637525390625ZM200.1849609375 78.08259375H201.073974609375V82.527662109375H200.1849609375ZM272.090478515625 14.701148437499995 273.868505859375 17.368189453124998 272.9794921875 21.813257812499998 273.868505859375 22.702271484374997H274.75751953125L275.646533203125 18.257203125000004H277.424560546875L278.31357421875 20.924244140625Q271.20146484375 46.548755859375 271.20146484375 60.92985937499999Q272.090478515625 70.709009765625 274.75751953125 70.709009765625L295.204833984375 47.594654296875L296.09384765625 43.1495859375V18.257203125000004L297.871875 16.479175781249992Q299.64990234375 16.479175781249992 299.64990234375 20.03523046875H300.538916015625Q300.538916015625 16.479175781249992 304.983984375 16.479175781249992L306.76201171875 20.03523046875L305.872998046875 24.480298828125Q307.651025390625 24.480298828125 307.651025390625 20.03523046875H309.429052734375L310.31806640625 20.924244140625H311.207080078125L306.76201171875 84.93322851562499L305.872998046875 88.489283203125Q302.316943359375 88.489283203125 302.316943359375 92.04533789062499H298.760888671875L299.64990234375 83.15520117187499H297.871875V88.489283203125L295.204833984375 91.15632421875V90.267310546875L296.09384765625 81.377173828125Q293.426806640625 81.377173828125 293.426806640625 77.821119140625H292.53779296875L277.424560546875 84.93322851562499L270.312451171875 83.15520117187499V84.04421484375Q261.108544921875 84.04421484375 257.866259765625 57.3738046875Q261.422314453125 17.368189453124998 264.978369140625 17.368189453124998V16.479175781249992H265.8673828125V20.03523046875H264.08935546875V21.813257812499998L264.978369140625 22.702271484374997V23.591285156249995H264.08935546875L264.978369140625 26.258326171874998L262.311328125 30.703394531249998H263.200341796875L264.08935546875 29.814380859375L261.422314453125 45.816626953124995V49.372681640625H262.311328125Q265.13525390625 14.701148437499995 272.090478515625 14.701148437499995ZM261.422314453125 50.261695312499995 260.53330078125 51.150708984374994V58.262818359375H261.422314453125L262.311328125 50.261695312499995ZM288.98173828125 57.3738046875 282.758642578125 64.4859140625H283.64765625L289.870751953125 57.3738046875ZM263.200341796875 71.59802343749999V73.37605078125L264.08935546875 76.04309179687499H264.978369140625V74.26506445312499L264.08935546875 71.59802343749999ZM269.4234375 76.04309179687499V76.93210546875Q269.4234375 80.01750585937499 277.424560546875 82.2661875H279.202587890625V81.377173828125Q274.077685546875 81.32487890624999 269.4234375 76.04309179687499ZM347.8658203125 11.929517578125001 352.15400390625 13.289185546875004 352.0494140625 14.178199218749995 347.656640625 13.707544921874998ZM330.869970703125 11.824927734374995 333.32783203125 13.916724609374995 341.48583984375 13.027710937500004 342.270263671875 14.021314453125001 343.15927734375 14.125904296874992 345.87861328125 13.550660156250004Q360.8349609375 15.119507812500004 367.476416015625 28.40241796875Q369.254443359375 28.611597656249998 368.7837890625 33.004371093749995L368.103955078125 39.227466796875L366.325927734375 39.018287109374995L366.430517578125 38.1292734375L367.63330078125 35.566822265625L366.848876953125 34.573218749999995L367.790185546875 33.788794921874995L367.00576171875 32.79519140625L365.280029296875 32.638306640625Q364.70478515625 37.710914062499995 355.134814453125 43.1495859375L355.030224609375 44.038599609375L355.91923828125 44.09089453125Q359.26611328125 44.509253906249995 365.280029296875 40.691724609375L365.12314453125 42.469751953125L360.050537109375 47.280884765625Q364.966259765625 47.803833984375 374.431640625 63.12624609375Q373.3857421875 72.8531015625 345.407958984375 83.20749609375Q333.432421875 89.012232421875 326.9478515625 88.33239843749999L325.37900390625 86.29289648437499L324.489990234375 86.24060156249999Q324.228515625 88.90764257812499 320.6724609375 88.489283203125Q320.35869140625 90.94714453124999 318.89443359375 90.94714453124999H318.5806640625Q316.80263671875 90.73796484374999 317.534765625 84.5671640625L316.645751953125 84.514869140625L315.286083984375 88.803052734375L314.3970703125 88.698462890625Q315.33837890625 79.912916015625 312.671337890625 79.65144140625L312.20068359375 75.990796875L313.194287109375 75.206373046875L312.357568359375 74.21276953124999L320.98623046875 36.665015624999995L320.201806640625 35.72370703125L321.0908203125 35.828296875L320.306396484375 34.88698828125L322.65966796875 21.70866796875L322.711962890625 20.819654296875L321.61376953125 14.439673828124995L322.502783203125 14.491968749999998Q327.47080078125 11.772632812499992 330.2947265625 11.772632812499992Q330.60849609375 11.772632812499992 330.869970703125 11.824927734374995ZM351.997119140625 23.120630859374998 351.892529296875 24.009644531249997 358.900048828125 25.683082031249995Q359.05693359375 23.905054687499998 356.4421875 23.643580078124998ZM334.8966796875 31.958472656249995 335.158154296875 38.233863281249995 343.2638671875 37.344849609375 343.106982421875 39.122876953125 356.2330078125 33.42273046875 356.12841796875 34.311744140624995 349.382373046875 38.913697265625Q360.4166015625 35.880591796874995 361.2533203125 28.611597656249998L359.47529296875 28.40241796875Q358.95234375 32.79519140625 356.33759765625 32.533716796875L356.494482421875 30.755689453125L355.60546875 30.703394531249998L356.808251953125 28.088648437499998L357.59267578125 29.082251953124995L358.481689453125 29.239136718749997L358.586279296875 28.350123046874998Q355.343994140625 25.26472265625 348.231884765625 24.532593749999997Q335.890283203125 23.120630859374998 334.8966796875 31.958472656249995ZM355.60546875 30.703394531249998 355.553173828125 31.592408203124997 353.565966796875 33.1089609375 352.676953125 33.056666015625ZM351.52646484375 51.725953125 351.474169921875 52.56267187499999 360.155126953125 54.445289062499995 361.044140625 54.497583984375 361.14873046875 53.60857031249999 357.697265625 52.353492187499995ZM331.5498046875 54.8636484375 328.882763671875 70.65671484375 329.6671875 71.65031835937499 330.556201171875 71.754908203125Q336.936181640625 72.487037109375 359.47529296875 60.61608984375L361.4625 59.0472421875Q361.305615234375 55.43889257812499 354.76875 54.75905859375L347.708935546875 53.922339843749995ZM363.3451171875 58.31511328124999 361.201025390625 61.71428320312499 365.0185546875 59.4656015625 364.234130859375 58.471998046875ZM369.149853515625 62.551001953124995Q368.836083984375 65.32263281249999 351.578759765625 75.83391210937499Q371.241650390625 67.98967382812499 371.660009765625 63.75378515625L370.77099609375 63.6491953125L370.0388671875 62.655591796875Z" fill="#ef3340" stroke="#091a2a" stroke-width="5" paint-order="stroke fill"/></svg>