<svg xmlns="http://www.w3.org/2000/svg" class="game-lettering" width="370.8618" height="66.0000" viewBox="0 0 370.8618 66.0000" role="img" aria-label="BATTLE NET" data-source-text="BATTLE NET" data-source-font="Edo SZ" data-font-size="75.0" style="overflow:visible"><title>BATTLE NET</title><path d="M25.341796875 8.35400390625 28.3447265625 9.30615234375 28.271484375 9.9287109375 25.1953125 9.59912109375ZM13.43994140625 8.28076171875 15.1611328125 9.74560546875 20.8740234375 9.123046875 21.42333984375 9.81884765625 22.0458984375 9.89208984375 23.9501953125 9.4892578125Q34.423828125 10.587890625 39.07470703125 19.8896484375Q40.31982421875 20.0361328125 39.990234375 23.1123046875L39.51416015625 27.47021484375L38.26904296875 27.32373046875L38.34228515625 26.701171875L39.1845703125 24.90673828125L38.63525390625 24.2109375L39.29443359375 23.66162109375L38.7451171875 22.9658203125L37.53662109375 22.85595703125Q37.1337890625 26.408203125 30.43212890625 30.216796875L30.35888671875 30.83935546875L30.9814453125 30.8759765625Q33.3251953125 31.1689453125 37.53662109375 28.49560546875L37.4267578125 29.74072265625L33.87451171875 33.10986328125Q37.31689453125 33.47607421875 43.9453125 44.2060546875Q43.212890625 51.017578125 23.62060546875 58.2685546875Q15.234375 62.33349609375 10.693359375 61.857421875L9.5947265625 60.42919921875L8.97216796875 60.392578125Q8.7890625 62.26025390625 6.298828125 61.96728515625Q6.0791015625 63.6884765625 5.0537109375 63.6884765625H4.833984375Q3.5888671875 63.5419921875 4.1015625 59.220703125L3.47900390625 59.18408203125L2.52685546875 62.18701171875L1.904296875 62.11376953125Q2.5634765625 55.96142578125 0.69580078125 55.7783203125L0.3662109375 53.21484375L1.06201171875 52.66552734375L0.47607421875 51.9697265625L6.5185546875 25.67578125L5.96923828125 25.0166015625L6.591796875 25.08984375L6.04248046875 24.4306640625L7.6904296875 15.2021484375L7.72705078125 14.57958984375L6.9580078125 10.11181640625L7.58056640625 10.1484375Q11.0595703125 8.244140625 13.037109375 8.244140625Q13.2568359375 8.244140625 13.43994140625 8.28076171875ZM28.23486328125 16.19091796875 28.16162109375 16.8134765625 33.06884765625 17.9853515625Q33.1787109375 16.740234375 31.34765625 16.55712890625ZM16.259765625 22.3798828125 16.44287109375 26.7744140625 22.119140625 26.15185546875 22.00927734375 27.39697265625 31.201171875 23.4052734375 31.1279296875 24.02783203125 26.40380859375 27.25048828125Q34.130859375 25.12646484375 34.716796875 20.0361328125L33.4716796875 19.8896484375Q33.10546875 22.9658203125 31.2744140625 22.78271484375L31.38427734375 21.53759765625L30.76171875 21.5009765625L31.60400390625 19.669921875L32.1533203125 20.36572265625L32.77587890625 20.4755859375L32.84912109375 19.85302734375Q30.57861328125 17.6923828125 25.59814453125 17.1796875Q16.95556640625 16.19091796875 16.259765625 22.3798828125ZM30.76171875 21.5009765625 30.72509765625 22.12353515625 29.33349609375 23.185546875 28.7109375 23.14892578125ZM27.9052734375 36.22265625 27.86865234375 36.80859375 33.94775390625 38.126953125 34.5703125 38.16357421875 34.6435546875 37.541015625 32.2265625 36.662109375ZM13.916015625 38.419921875 12.04833984375 49.4794921875 12.59765625 50.17529296875 13.22021484375 50.24853515625Q17.68798828125 50.76123046875 33.4716796875 42.4482421875L34.86328125 41.349609375Q34.75341796875 38.82275390625 30.17578125 38.3466796875L25.23193359375 37.7607421875ZM36.181640625 40.8369140625 34.68017578125 43.21728515625 37.353515625 41.642578125 36.80419921875 40.94677734375ZM40.24658203125 43.80322265625Q40.02685546875 45.744140625 27.94189453125 53.10498046875Q41.71142578125 47.61181640625 42.00439453125 44.6455078125L41.3818359375 44.572265625L40.869140625 43.87646484375ZM68.73779296875 7.365234375Q69.140625 9.23291015625 73.71826171875 9.23291015625L78.69873046875 31.0224609375H83.056640625V31.64501953125L79.3212890625 32.267578125V32.89013671875Q81.18896484375 32.89013671875 81.18896484375 34.13525390625H86.16943359375V34.7578125Q86.16943359375 36.1494140625 79.94384765625 37.248046875L81.18896484375 40.9833984375L80.56640625 42.85107421875L81.18896484375 46.58642578125L80.56640625 47.208984375H81.18896484375L80.56640625 47.83154296875L81.18896484375 55.30224609375V59.03759765625L80.56640625 58.4150390625H79.94384765625L81.8115234375 67.75341796875H80.56640625Q80.56640625 65.8857421875 79.3212890625 65.8857421875V66.50830078125L79.94384765625 68.3759765625H79.3212890625L78.69873046875 67.75341796875H78.076171875Q78.076171875 69.62109375 76.8310546875 69.62109375L73.71826171875 59.03759765625H73.095703125V61.52783203125H72.47314453125L71.22802734375 54.05712890625L73.095703125 55.30224609375V54.6796875Q72.5830078125 49.07666015625 71.22802734375 49.07666015625L71.8505859375 48.4541015625V46.58642578125H70.60546875V48.4541015625H69.98291015625V45.9638671875L70.60546875 45.34130859375H69.98291015625L69.3603515625 45.9638671875V43.4736328125H69.98291015625L70.60546875 44.09619140625H71.22802734375L70.60546875 43.4736328125V39.73828125L56.9091796875 42.85107421875V44.09619140625L61.26708984375 42.85107421875L63.75732421875 43.4736328125L66.8701171875 42.85107421875V44.09619140625Q53.79638671875 46.43994140625 53.79638671875 50.32177734375Q52.1484375 57.169921875 50.06103515625 59.03759765625V60.28271484375H48.193359375L47.57080078125 59.66015625H46.9482421875V60.28271484375L45.08056640625 59.03759765625L46.32568359375 55.30224609375H45.703125Q43.83544921875 55.30224609375 43.83544921875 60.28271484375L42.59033203125 59.03759765625L43.212890625 55.30224609375L41.34521484375 53.4345703125L51.9287109375 27.90966796875H52.55126953125Q52.55126953125 29.77734375 53.79638671875 29.77734375L54.4189453125 26.66455078125L53.79638671875 27.287109375H53.173828125V24.796875L53.79638671875 21.68408203125L54.4189453125 22.306640625H55.04150390625L54.4189453125 21.68408203125V21.0615234375L55.6640625 18.5712890625H56.28662109375L56.9091796875 19.19384765625H57.53173828125V18.5712890625Q57.53173828125 17.326171875 55.6640625 17.326171875L58.77685546875 8.6103515625H61.26708984375L60.64453125 9.23291015625V9.85546875Q64.9658203125 7.365234375 68.73779296875 7.365234375ZM65.00244140625 21.68408203125 60.02197265625 34.7578125H61.26708984375Q67.49267578125 34.7578125 68.115234375 31.0224609375L65.625 21.68408203125ZM59.3994140625 25.41943359375 58.154296875 29.77734375 57.53173828125 29.15478515625H56.9091796875L57.53173828125 31.64501953125H58.154296875L60.02197265625 26.0419921875V25.41943359375ZM52.55126953125 31.0224609375 51.9287109375 31.64501953125V32.89013671875H52.55126953125L53.173828125 31.0224609375ZM56.28662109375 33.5126953125 55.6640625 36.0029296875H56.28662109375L56.9091796875 35.38037109375V33.5126953125ZM50.68359375 34.13525390625 50.06103515625 36.62548828125H50.68359375L51.9287109375 34.13525390625ZM61.26708984375 36.0029296875V36.62548828125H62.51220703125Q68.115234375 36.0029296875 68.115234375 34.7578125H67.49267578125ZM69.98291015625 49.69921875H71.22802734375V53.4345703125H70.60546875ZM78.69873046875 54.05712890625V55.30224609375L79.3212890625 57.79248046875H79.94384765625V56.54736328125L79.3212890625 54.05712890625ZM72.47314453125 55.9248046875V57.169921875L74.3408203125 56.54736328125V55.30224609375ZM125.9033203125 9.08642578125 127.77099609375 9.708984375V10.9541015625H125.9033203125L127.1484375 12.82177734375Q125.79345703125 15.9345703125 117.1875 15.9345703125L112.82958984375 16.55712890625L112.20703125 18.4248046875H112.82958984375Q110.9619140625 22.85595703125 105.35888671875 58.2685546875L107.2265625 66.36181640625H106.60400390625Q105.21240234375 66.36181640625 104.11376953125 60.13623046875L104.736328125 53.91064453125V53.2880859375H104.11376953125V54.533203125Q102.24609375 54.533203125 102.24609375 55.7783203125V56.40087890625L103.4912109375 66.36181640625V66.984375H102.24609375L99.755859375 65.11669921875L99.13330078125 65.7392578125H98.5107421875Q96.0205078125 60.35595703125 96.0205078125 56.40087890625L96.64306640625 57.0234375H97.265625L96.0205078125 52.66552734375L97.88818359375 52.04296875V48.93017578125H96.64306640625V48.3076171875Q98.5107421875 48.3076171875 98.5107421875 47.0625V46.43994140625H97.265625Q97.265625 41.45947265625 99.13330078125 41.45947265625V33.3662109375Q100.1220703125 32.4873046875 101.62353515625 20.29248046875L97.265625 20.9150390625L88.5498046875 20.29248046875V19.669921875L91.66259765625 19.04736328125V19.669921875L92.28515625 19.04736328125H101.62353515625V17.1796875L91.66259765625 18.4248046875L91.0400390625 17.80224609375H90.41748046875L86.68212890625 18.4248046875L84.814453125 17.1796875L85.43701171875 14.06689453125L84.814453125 13.4443359375Q84.814453125 10.33154296875 92.28515625 10.33154296875ZM122.16796875 10.9541015625V11.57666015625H124.658203125V10.9541015625ZM99.13330078125 45.8173828125 97.88818359375 59.513671875H99.13330078125L98.5107421875 56.40087890625V55.15576171875L99.755859375 53.2880859375H99.13330078125L99.755859375 52.66552734375V52.04296875L99.13330078125 51.42041015625V50.7978515625L100.37841796875 48.3076171875L99.755859375 45.8173828125ZM159.55810546875 9.08642578125 161.42578125 9.708984375V10.9541015625H159.55810546875L160.80322265625 12.82177734375Q159.4482421875 15.9345703125 150.84228515625 15.9345703125L146.484375 16.55712890625L145.86181640625 18.4248046875H146.484375Q144.61669921875 22.85595703125 139.013671875 58.2685546875L140.88134765625 66.36181640625H140.2587890625Q138.8671875 66.36181640625 137.7685546875 60.13623046875L138.39111328125 53.91064453125V53.2880859375H137.7685546875V54.533203125Q135.90087890625 54.533203125 135.90087890625 55.7783203125V56.40087890625L137.14599609375 66.36181640625V66.984375H135.90087890625L133.41064453125 65.11669921875L132.7880859375 65.7392578125H132.16552734375Q129.67529296875 60.35595703125 129.67529296875 56.40087890625L130.2978515625 57.0234375H130.92041015625L129.67529296875 52.66552734375L131.54296875 52.04296875V48.93017578125H130.2978515625V48.3076171875Q132.16552734375 48.3076171875 132.16552734375 47.0625V46.43994140625H130.92041015625Q130.92041015625 41.45947265625 132.7880859375 41.45947265625V33.3662109375Q133.77685546875 32.4873046875 135.2783203125 20.29248046875L130.92041015625 20.9150390625L122.20458984375 20.29248046875V19.669921875L125.3173828125 19.04736328125V19.669921875L125.93994140625 19.04736328125H135.2783203125V17.1796875L125.3173828125 18.4248046875L124.69482421875 17.80224609375H124.072265625L120.3369140625 18.4248046875L118.46923828125 17.1796875L119.091796875 14.06689453125L118.46923828125 13.4443359375Q118.46923828125 10.33154296875 125.93994140625 10.33154296875ZM155.82275390625 10.9541015625V11.57666015625H158.31298828125V10.9541015625ZM132.7880859375 45.8173828125 131.54296875 59.513671875H132.7880859375L132.16552734375 56.40087890625V55.15576171875L133.41064453125 53.2880859375H132.7880859375L133.41064453125 52.66552734375V52.04296875L132.7880859375 51.42041015625V50.7978515625L134.033203125 48.3076171875L133.41064453125 45.8173828125ZM164.794921875 9.85546875Q166.0400390625 9.85546875 166.0400390625 13.5908203125H167.28515625L169.15283203125 12.345703125L169.775390625 12.96826171875L166.66259765625 47.83154296875Q170.61767578125 45.9638671875 187.82958984375 43.4736328125H188.4521484375V44.09619140625Q166.66259765625 47.6484375 166.66259765625 49.69921875L173.5107421875 47.83154296875V48.4541015625L185.33935546875 45.9638671875V46.58642578125L185.9619140625 45.9638671875H186.58447265625L187.20703125 46.58642578125L190.31982421875 45.9638671875H192.81005859375L197.16796875 46.58642578125V47.208984375Q197.16796875 49.07666015625 187.82958984375 50.32177734375V50.9443359375L188.4521484375 50.32177734375H189.07470703125L193.4326171875 50.9443359375L194.05517578125 50.32177734375V52.189453125L173.5107421875 57.169921875L160.43701171875 62.150390625H158.5693359375L156.0791015625 59.03759765625H155.45654296875V58.4150390625Q155.45654296875 56.84033203125 157.94677734375 56.54736328125V54.6796875L156.0791015625 52.189453125L158.5693359375 24.17431640625H159.19189453125V26.66455078125L158.5693359375 31.0224609375H159.814453125L158.5693359375 39.11572265625L159.19189453125 39.73828125L158.5693359375 42.228515625V45.34130859375H159.19189453125L161.68212890625 12.345703125Q162.92724609375 12.345703125 162.92724609375 10.47802734375L163.5498046875 9.85546875ZM228.55224609375 10.2216796875 231.55517578125 12.30908203125Q230.23681640625 17.8388671875 226.79443359375 17.619140625L210.53466796875 18.3515625L210.46142578125 19.5966796875L213.53759765625 19.81640625L217.3095703125 19.4501953125L217.8955078125 20.14599609375L218.51806640625 20.1826171875L222.91259765625 19.81640625L224.15771484375 19.92626953125L224.12109375 20.548828125L209.65576171875 22.05029296875L208.5205078125 30.10693359375L209.14306640625 30.1435546875L226.06201171875 28.78857421875L226.611328125 29.44775390625L226.57470703125 30.0703125L225.32958984375 29.96044921875V30.5830078125L229.6142578125 31.53515625L229.57763671875 32.15771484375Q228.22265625 35.63671875 211.70654296875 37.79736328125L205.4443359375 38.01708984375L206.0302734375 38.6396484375L203.02734375 46.5498046875H202.40478515625L202.77099609375 40.94677734375L202.1484375 40.91015625L200.93994140625 49.552734375Q219.580078125 47.0625 227.2705078125 47.5751953125L230.31005859375 48.41748046875L230.2734375 49.66259765625L229.0283203125 49.58935546875L229.57763671875 50.24853515625L229.4677734375 52.1162109375Q227.67333984375 54.4599609375 221.8505859375 54.09375L221.81396484375 54.71630859375L226.79443359375 55.0458984375L226.6845703125 56.291015625L197.71728515625 60.5390625L197.0947265625 60.50244140625Q194.091796875 59.84326171875 194.091796875 58.5615234375V58.45166015625L194.20166015625 56.583984375L195.9228515625 49.845703125L195.3369140625 49.1865234375L196.58203125 49.22314453125L196.3623046875 52.3359375L196.98486328125 52.4091796875Q197.35107421875 49.29638671875 198.44970703125 49.40625L197.86376953125 48.71044921875L198.30322265625 42.521484375L197.05810546875 42.41162109375L196.2158203125 45.48779296875L196.91162109375 44.90185546875L197.5341796875 44.9384765625L197.27783203125 48.673828125L196.6552734375 48.6005859375L196.76513671875 46.76953125L196.142578125 46.73291015625L196.0693359375 47.97802734375L195.44677734375 47.94140625L195.52001953125 46.6962890625L197.49755859375 36.18603515625L196.875 36.1494140625L198.30322265625 33.146484375L197.71728515625 32.4873046875L197.75390625 31.86474609375L199.10888671875 21.3544921875L199.69482421875 22.013671875L200.3173828125 22.05029296875L200.390625 20.80517578125L199.98779296875 17.65576171875L200.9765625 12.08935546875L201.08642578125 10.2216796875L201.708984375 10.294921875L202.294921875 10.9541015625L202.9541015625 10.3681640625L203.57666015625 10.44140625L204.16259765625 11.06396484375L204.82177734375 10.47802734375L206.689453125 10.62451171875ZM197.3876953125 37.43115234375 197.0947265625 41.7890625 197.71728515625 41.82568359375 198.01025390625 37.50439453125ZM217.93212890625 38.23681640625H218.5546875L218.4814453125 38.859375L207.2021484375 39.99462890625L206.6162109375 39.298828125L206.65283203125 38.712890625L212.29248046875 38.45654296875L212.255859375 39.0791015625ZM265.24658203125 10.5146484375 269.6044921875 14.25Q269.6044921875 12.38232421875 270.849609375 12.38232421875H271.47216796875L280.18798828125 34.79443359375V36.03955078125H279.5654296875L278.3203125 32.30419921875H277.69775390625V33.54931640625L282.0556640625 44.1328125H282.67822265625Q285.16845703125 27.9462890625 289.85595703125 10.33154296875L291.7236328125 11.57666015625L293.59130859375 10.9541015625L297.32666015625 12.82177734375V13.4443359375Q295.458984375 13.4443359375 295.458984375 15.9345703125H296.08154296875L296.7041015625 16.55712890625H297.32666015625L297.94921875 13.4443359375H299.1943359375V14.06689453125L298.57177734375 14.689453125L299.1943359375 15.31201171875V15.9345703125Q294.5068359375 30.32666015625 290.771484375 57.20654296875H289.5263671875L290.771484375 47.24560546875Q289.5263671875 47.24560546875 287.0361328125 59.07421875Q284.72900390625 60.94189453125 282.67822265625 60.94189453125V62.18701171875H282.0556640625Q282.0556640625 60.94189453125 279.5654296875 60.94189453125V56.583984375Q279.5654296875 53.76416015625 267.1142578125 25.4560546875H266.49169921875Q264.00146484375 36.55224609375 262.1337890625 55.3388671875L261.51123046875 54.71630859375Q257.77587890625 55.81494140625 257.77587890625 57.8291015625H256.53076171875Q255.28564453125 55.4853515625 255.28564453125 49.73583984375H254.6630859375V55.3388671875H253.41796875L252.79541015625 52.22607421875Q252.79541015625 35.30712890625 260.26611328125 11.13720703125ZM256.53076171875 26.07861328125V26.701171875L257.1533203125 27.32373046875L256.53076171875 27.9462890625V29.19140625H257.1533203125L257.77587890625 26.701171875L257.1533203125 26.07861328125ZM280.18798828125 36.03955078125Q281.79931640625 36.03955078125 282.67822265625 41.02001953125V41.642578125H282.0556640625ZM334.02099609375 10.2216796875 337.02392578125 12.30908203125Q335.70556640625 17.8388671875 332.26318359375 17.619140625L316.00341796875 18.3515625L315.93017578125 19.5966796875L319.00634765625 19.81640625L322.7783203125 19.4501953125L323.3642578125 20.14599609375L323.98681640625 20.1826171875L328.38134765625 19.81640625L329.62646484375 19.92626953125L329.58984375 20.548828125L315.12451171875 22.05029296875L313.9892578125 30.10693359375L314.61181640625 30.1435546875L331.53076171875 28.78857421875L332.080078125 29.44775390625L332.04345703125 30.0703125L330.79833984375 29.96044921875V30.5830078125L335.0830078125 31.53515625L335.04638671875 32.15771484375Q333.69140625 35.63671875 317.17529296875 37.79736328125L310.9130859375 38.01708984375L311.4990234375 38.6396484375L308.49609375 46.5498046875H307.87353515625L308.23974609375 40.94677734375L307.6171875 40.91015625L306.40869140625 49.552734375Q325.048828125 47.0625 332.7392578125 47.5751953125L335.77880859375 48.41748046875L335.7421875 49.66259765625L334.4970703125 49.58935546875L335.04638671875 50.24853515625L334.9365234375 52.1162109375Q333.14208984375 54.4599609375 327.3193359375 54.09375L327.28271484375 54.71630859375L332.26318359375 55.0458984375L332.1533203125 56.291015625L303.18603515625 60.5390625L302.5634765625 60.50244140625Q299.560546875 59.84326171875 299.560546875 58.5615234375V58.45166015625L299.67041015625 56.583984375L301.3916015625 49.845703125L300.8056640625 49.1865234375L302.05078125 49.22314453125L301.8310546875 52.3359375L302.45361328125 52.4091796875Q302.81982421875 49.29638671875 303.91845703125 49.40625L303.33251953125 48.71044921875L303.77197265625 42.521484375L302.52685546875 42.41162109375L301.6845703125 45.48779296875L302.38037109375 44.90185546875L303.0029296875 44.9384765625L302.74658203125 48.673828125L302.1240234375 48.6005859375L302.23388671875 46.76953125L301.611328125 46.73291015625L301.5380859375 47.97802734375L300.91552734375 47.94140625L300.98876953125 46.6962890625L302.96630859375 36.18603515625L302.34375 36.1494140625L303.77197265625 33.146484375L303.18603515625 32.4873046875L303.22265625 31.86474609375L304.57763671875 21.3544921875L305.16357421875 22.013671875L305.7861328125 22.05029296875L305.859375 20.80517578125L305.45654296875 17.65576171875L306.4453125 12.08935546875L306.55517578125 10.2216796875L307.177734375 10.294921875L307.763671875 10.9541015625L308.4228515625 10.3681640625L309.04541015625 10.44140625L309.63134765625 11.06396484375L310.29052734375 10.47802734375L312.158203125 10.62451171875ZM302.8564453125 37.43115234375 302.5634765625 41.7890625 303.18603515625 41.82568359375 303.47900390625 37.50439453125ZM323.40087890625 38.23681640625H324.0234375L323.9501953125 38.859375L312.6708984375 39.99462890625L312.0849609375 39.298828125L312.12158203125 38.712890625L317.76123046875 38.45654296875L317.724609375 39.0791015625ZM375.2197265625 9.08642578125 377.08740234375 9.708984375V10.9541015625H375.2197265625L376.46484375 12.82177734375Q375.10986328125 15.9345703125 366.50390625 15.9345703125L362.14599609375 16.55712890625L361.5234375 18.4248046875H362.14599609375Q360.2783203125 22.85595703125 354.67529296875 58.2685546875L356.54296875 66.36181640625H355.92041015625Q354.52880859375 66.36181640625 353.43017578125 60.13623046875L354.052734375 53.91064453125V53.2880859375H353.43017578125V54.533203125Q351.5625 54.533203125 351.5625 55.7783203125V56.40087890625L352.8076171875 66.36181640625V66.984375H351.5625L349.072265625 65.11669921875L348.44970703125 65.7392578125H347.8271484375Q345.3369140625 60.35595703125 345.3369140625 56.40087890625L345.95947265625 57.0234375H346.58203125L345.3369140625 52.66552734375L347.20458984375 52.04296875V48.93017578125H345.95947265625V48.3076171875Q347.8271484375 48.3076171875 347.8271484375 47.0625V46.43994140625H346.58203125Q346.58203125 41.45947265625 348.44970703125 41.45947265625V33.3662109375Q349.4384765625 32.4873046875 350.93994140625 20.29248046875L346.58203125 20.9150390625L337.8662109375 20.29248046875V19.669921875L340.97900390625 19.04736328125V19.669921875L341.6015625 19.04736328125H350.93994140625V17.1796875L340.97900390625 18.4248046875L340.3564453125 17.80224609375H339.73388671875L335.99853515625 18.4248046875L334.130859375 17.1796875L334.75341796875 14.06689453125L334.130859375 13.4443359375Q334.130859375 10.33154296875 341.6015625 10.33154296875ZM371.484375 10.9541015625V11.57666015625H373.974609375V10.9541015625ZM348.44970703125 45.8173828125 347.20458984375 59.513671875H348.44970703125L347.8271484375 56.40087890625V55.15576171875L349.072265625 53.2880859375H348.44970703125L349.072265625 52.66552734375V52.04296875L348.44970703125 51.42041015625V50.7978515625L349.69482421875 48.3076171875L349.072265625 45.8173828125Z" fill="#ef3340" stroke="#091a2a" stroke-width="5" paint-order="stroke fill"/></svg>