<svg xmlns="http://www.w3.org/2000/svg" class="game-lettering" width="360.5273" height="216.0000" viewBox="0 0 360.5273 216.0000" role="img" aria-label="WATCH DOGS 2" data-source-text="WATCH|DOGS 2" data-source-font="Edo SZ" data-font-size="120" style="overflow:visible"><title>WATCH DOGS 2</title><path d="M7.08984375 15.38671875H10.078125L11.07421875 20.3671875Q14.0625 20.3671875 14.0625 17.37890625H15.05859375L17.05078125 19.37109375L16.0546875 25.34765625H17.05078125L16.0546875 26.34375V27.33984375L17.05078125 28.3359375V29.33203125H16.0546875L17.05078125 30.328125V31.32421875L16.0546875 64.1953125V65.19140625H17.05078125L20.0390625 55.23046875H22.03125L15.05859375 74.15625H17.05078125L29.00390625 40.2890625H27.01171875L23.02734375 53.23828125H21.03515625V52.2421875L28.0078125 36.3046875H29.00390625V38.296875L36.97265625 36.3046875Q40.95703125 37.76953125 40.95703125 39.29296875L41.953125 38.296875H44.94140625L48.92578125 62.203125H49.921875Q49.921875 57.75 65.625 10.875H66.62109375L67.6171875 13.86328125H68.61328125V11.87109375H69.609375Q76.9921875 11.87109375 77.578125 14.859375V16.8515625L75.5859375 19.83984375V20.8359375H77.578125L78.57421875 13.86328125H80.56640625L82.55859375 15.85546875V16.8515625L59.8828125 95.07421875L56.89453125 96.0703125V94.078125L55.8984375 95.07421875H54.90234375L53.90625 94.078125Q53.90625 98.0625 50.91796875 98.0625Q42.94921875 97.359375 42.94921875 95.07421875H43.9453125Q42.94921875 90.09375 39.9609375 88.1015625L35.9765625 66.1875Q34.27734375 66.24609375 24.0234375 94.078125L19.04296875 99.05859375H18.046875L17.05078125 95.07421875Q32.28515625 69.87890625 32.98828125 56.2265625Q30.3515625 58.86328125 20.0390625 86.109375Q18.80859375 86.109375 16.0546875 98.0625H7.08984375L6.09375 94.078125L5.09765625 95.07421875H4.1015625Q4.1015625 89.68359375 1.11328125 87.10546875V83.12109375L5.09765625 86.109375L3.10546875 69.17578125L4.1015625 68.1796875L3.10546875 67.18359375L4.1015625 66.1875H3.10546875L4.1015625 65.19140625V51.24609375L5.09765625 46.265625H4.1015625L5.09765625 45.26953125V19.37109375L4.1015625 18.375V17.37890625ZM65.625 15.85546875Q50.91796875 61.6171875 50.91796875 67.18359375V68.1796875H51.9140625L67.6171875 15.85546875ZM63.8671875 54.234375 61.875 63.19921875V64.1953125H62.87109375L64.86328125 55.23046875V54.234375ZM57.890625 78.140625 55.8984375 87.10546875V89.09765625H56.89453125L58.88671875 79.13671875V78.140625ZM118.30078125 12.984375Q118.9453125 15.97265625 126.26953125 15.97265625L134.23828125 50.8359375H141.2109375V51.83203125L135.234375 52.828125V53.82421875Q138.22265625 53.82421875 138.22265625 55.81640625H146.19140625V56.8125Q146.19140625 59.0390625 136.23046875 60.796875L138.22265625 66.7734375L137.2265625 69.76171875L138.22265625 75.73828125L137.2265625 76.734375H138.22265625L137.2265625 77.73046875L138.22265625 89.68359375V95.66015625L137.2265625 94.6640625H136.23046875L139.21875 109.60546875H137.2265625Q137.2265625 106.6171875 135.234375 106.6171875V107.61328125L136.23046875 110.6015625H135.234375L134.23828125 109.60546875H133.2421875Q133.2421875 112.59375 131.25 112.59375L126.26953125 95.66015625H125.2734375V99.64453125H124.27734375L122.28515625 87.69140625L125.2734375 89.68359375V88.6875Q124.453125 79.72265625 122.28515625 79.72265625L123.28125 78.7265625V75.73828125H121.2890625V78.7265625H120.29296875V74.7421875L121.2890625 73.74609375H120.29296875L119.296875 74.7421875V70.7578125H120.29296875L121.2890625 71.75390625H122.28515625L121.2890625 70.7578125V64.78125L99.375 69.76171875V71.75390625L106.34765625 69.76171875L110.33203125 70.7578125L115.3125 69.76171875V71.75390625Q94.39453125 75.50390625 94.39453125 81.71484375Q91.7578125 92.671875 88.41796875 95.66015625V97.65234375H85.4296875L84.43359375 96.65625H83.4375V97.65234375L80.44921875 95.66015625L82.44140625 89.68359375H81.4453125Q78.45703125 89.68359375 78.45703125 97.65234375L76.46484375 95.66015625L77.4609375 89.68359375L74.47265625 86.6953125L91.40625 45.85546875H92.40234375Q92.40234375 48.84375 94.39453125 48.84375L95.390625 43.86328125L94.39453125 44.859375H93.3984375V40.875L94.39453125 35.89453125L95.390625 36.890625H96.38671875L95.390625 35.89453125V34.8984375L97.3828125 30.9140625H98.37890625L99.375 31.91015625H100.37109375V30.9140625Q100.37109375 28.921875 97.3828125 28.921875L102.36328125 14.9765625H106.34765625L105.3515625 15.97265625V16.96875Q112.265625 12.984375 118.30078125 12.984375ZM112.32421875 35.89453125 104.35546875 56.8125H106.34765625Q116.30859375 56.8125 117.3046875 50.8359375L113.3203125 35.89453125ZM103.359375 41.87109375 101.3671875 48.84375 100.37109375 47.84765625H99.375L100.37109375 51.83203125H101.3671875L104.35546875 42.8671875V41.87109375ZM92.40234375 50.8359375 91.40625 51.83203125V53.82421875H92.40234375L93.3984375 50.8359375ZM98.37890625 54.8203125 97.3828125 58.8046875H98.37890625L99.375 57.80859375V54.8203125ZM89.4140625 55.81640625 88.41796875 59.80078125H89.4140625L91.40625 55.81640625ZM106.34765625 58.8046875V59.80078125H108.33984375Q117.3046875 58.8046875 117.3046875 56.8125H116.30859375ZM120.29296875 80.71875H122.28515625V86.6953125H121.2890625ZM134.23828125 87.69140625V89.68359375L135.234375 93.66796875H136.23046875V91.67578125L135.234375 87.69140625ZM124.27734375 90.6796875V92.671875L127.265625 91.67578125V89.68359375ZM209.765625 15.73828125 212.75390625 16.734375V18.7265625H209.765625L211.7578125 21.71484375Q209.58984375 26.6953125 195.8203125 26.6953125L188.84765625 27.69140625L187.8515625 30.6796875H188.84765625Q185.859375 37.76953125 176.89453125 94.4296875L179.8828125 107.37890625H178.88671875Q176.66015625 107.37890625 174.90234375 97.41796875L175.8984375 87.45703125V86.4609375H174.90234375V88.453125Q171.9140625 88.453125 171.9140625 90.4453125V91.44140625L173.90625 107.37890625V108.375H171.9140625L167.9296875 105.38671875L166.93359375 106.3828125H165.9375Q161.953125 97.76953125 161.953125 91.44140625L162.94921875 92.4375H163.9453125L161.953125 85.46484375L164.94140625 84.46875V79.48828125H162.94921875V78.4921875Q165.9375 78.4921875 165.9375 76.5V75.50390625H163.9453125Q163.9453125 67.53515625 166.93359375 67.53515625V54.5859375Q168.515625 53.1796875 170.91796875 33.66796875L163.9453125 34.6640625L150.0 33.66796875V32.671875L154.98046875 31.67578125V32.671875L155.9765625 31.67578125H170.91796875V28.6875L154.98046875 30.6796875L153.984375 29.68359375H152.98828125L147.01171875 30.6796875L144.0234375 28.6875L145.01953125 23.70703125L144.0234375 22.7109375Q144.0234375 17.73046875 155.9765625 17.73046875ZM203.7890625 18.7265625V19.72265625H207.7734375V18.7265625ZM166.93359375 74.5078125 164.94140625 96.421875H166.93359375L165.9375 91.44140625V89.44921875L167.9296875 86.4609375H166.93359375L167.9296875 85.46484375V84.46875L166.93359375 83.47265625V82.4765625L168.92578125 78.4921875L167.9296875 74.5078125ZM238.59375 18.90234375H239.58984375Q254.0625 18.90234375 261.50390625 30.85546875V31.8515625H259.51171875L260.5078125 32.84765625V33.84375Q254.53125 33.140625 254.53125 31.8515625Q231.26953125 31.8515625 219.66796875 55.7578125L217.67578125 62.73046875L220.6640625 81.65625H223.65234375Q236.07421875 81.65625 251.54296875 63.7265625H252.5390625V64.72265625Q241.93359375 80.015625 228.6328125 82.65234375V83.6484375H229.62890625Q240.05859375 83.6484375 255.52734375 65.71875L258.515625 69.703125V72.69140625Q258.515625 75.9140625 243.57421875 87.6328125L242.578125 88.62890625H241.58203125V90.62109375Q258.515625 82.359375 258.515625 78.66796875H260.5078125V79.6640625Q247.96875 94.60546875 231.62109375 94.60546875V95.6015625H236.6015625L240.5859375 94.60546875H241.58203125V95.6015625L229.62890625 97.53515625Q222.0703125 97.53515625 213.69140625 86.63671875V87.6328125L218.671875 95.6015625V96.5390625H215.68359375Q206.42578125 90.2109375 204.7265625 80.66015625L203.73046875 67.7109375Q203.73046875 42.75 213.69140625 35.8359375V36.83203125L207.71484375 46.79296875V47.7890625H208.7109375Q208.7109375 38.296875 233.61328125 20.89453125L230.625 21.890625H229.62890625V20.89453125ZM227.63671875 22.88671875H228.6328125V23.8828125L221.66015625 26.87109375Q221.66015625 24.87890625 227.63671875 22.88671875ZM218.671875 29.859375V30.85546875L213.69140625 35.8359375V34.83984375ZM206.71875 77.671875V80.66015625L207.71484375 84.64453125H208.7109375V83.6484375L207.71484375 77.671875ZM275.91796875 16.96875H276.9140625V19.95703125H277.91015625V17.96484375H281.89453125Q283.88671875 17.96484375 283.88671875 23.94140625L286.875 24.9375Q286.875 21.94921875 288.8671875 21.94921875L289.86328125 22.9453125V23.94140625L284.8828125 50.8359375L299.82421875 49.83984375H309.78515625L310.78125 44.859375L309.78515625 43.86328125H311.77734375L310.78125 36.890625V35.89453125H312.7734375L311.77734375 34.8984375V32.90625H313.76953125V30.9140625H311.77734375V29.91796875H313.76953125L312.7734375 28.921875V21.94921875L313.76953125 22.9453125H314.765625V18.9609375L313.76953125 17.96484375V16.96875H316.7578125L311.77734375 50.8359375Q313.76953125 50.8359375 317.75390625 17.96484375L321.73828125 16.96875Q322.734375 24.9375 324.7265625 24.9375H325.72265625Q325.72265625 21.94921875 327.71484375 21.94921875H328.7109375Q323.73046875 56.40234375 313.76953125 102.6328125H312.7734375L311.77734375 101.63671875L312.7734375 100.640625V92.671875H311.77734375L308.7890625 102.6328125H305.80078125Q303.80859375 102.6328125 303.80859375 96.65625H302.8125V100.640625H301.81640625Q299.82421875 100.640625 299.82421875 97.65234375Q299.82421875 90.4453125 305.80078125 63.78515625H304.8046875L291.85546875 64.78125L282.890625 63.78515625Q279.90234375 87.69140625 276.9140625 95.66015625H273.92578125Q271.93359375 95.66015625 271.93359375 87.69140625H270.9375L269.94140625 94.6640625L267.94921875 92.671875V89.68359375L268.9453125 88.6875V87.69140625L267.94921875 86.6953125H266.953125L265.95703125 87.69140625H264.9609375L263.96484375 83.70703125Q267.94921875 50.07421875 272.9296875 34.8984375H273.92578125L272.9296875 33.90234375V30.9140625L275.91796875 19.95703125H274.921875ZM276.9140625 20.953125V27.92578125H277.91015625V20.953125ZM275.91796875 28.921875 274.921875 36.890625V38.8828125H275.91796875L276.9140625 30.9140625V28.921875ZM273.92578125 39.87890625V43.86328125H274.921875V39.87890625ZM272.9296875 44.859375 271.93359375 49.83984375V50.8359375H272.9296875L273.92578125 46.8515625V44.859375ZM270.9375 54.8203125V58.8046875H271.93359375V54.8203125ZM308.7890625 64.78125 307.79296875 70.7578125V71.75390625H308.7890625L309.78515625 66.7734375V64.78125ZM306.796875 72.75V76.734375H307.79296875V72.75ZM313.76953125 83.70703125 312.7734375 88.6875V91.67578125H313.76953125L314.765625 84.703125V83.70703125ZM264.9609375 88.6875H265.95703125V93.66796875H264.9609375ZM14.70703125 125.26171875H18.69140625L21.6796875 127.25390625L28.65234375 126.2578125Q45.9375 126.2578125 60.52734375 146.1796875L65.5078125 156.140625L64.51171875 157.13671875L65.5078125 162.1171875V167.09765625Q65.5078125 192.703125 23.671875 205.9453125L13.7109375 206.94140625Q13.7109375 204.421875 9.7265625 203.953125V207.9375H6.73828125V201.9609375L5.7421875 200.96484375L6.73828125 199.96875V198.97265625Q0.76171875 194.87109375 0.76171875 192.0Q3.75 146.8828125 10.72265625 126.2578125H11.71875L12.71484375 127.25390625ZM10.72265625 135.22265625 5.7421875 164.109375V165.10546875H6.73828125L11.71875 137.21484375V135.22265625ZM26.66015625 142.1953125Q26.66015625 144.1875 22.67578125 144.1875Q18.69140625 162.3515625 16.69921875 186.0234375Q22.5 186.0234375 46.58203125 176.0625V175.06640625H44.58984375Q52.55859375 166.921875 52.55859375 158.1328125V155.14453125Q52.55859375 144.1875 37.6171875 142.1953125ZM46.58203125 142.1953125V143.19140625L50.56640625 145.18359375V144.1875L47.578125 142.1953125ZM55.546875 156.140625 54.55078125 168.09375H56.54296875V165.10546875L57.5390625 161.12109375L56.54296875 156.140625ZM62.51953125 164.109375 57.5390625 180.046875V181.04296875H58.53515625L63.515625 166.1015625V164.109375ZM52.55859375 171.08203125 50.56640625 175.06640625H51.5625L53.5546875 171.08203125ZM46.58203125 189.01171875Q48.92578125 188.66015625 53.5546875 183.03515625V182.0390625ZM23.671875 194.98828125V195.984375H27.65625L32.63671875 193.9921875V192.99609375H31.640625ZM15.703125 195.984375 16.69921875 198.97265625H18.69140625L20.68359375 196.98046875V195.984375H19.6875L16.69921875 196.98046875ZM4.74609375 201.9609375H5.7421875V202.95703125L3.75 204.94921875H2.75390625V203.953125ZM111.50390625 125.26171875Q123.22265625 125.26171875 133.41796875 132.234375L132.421875 133.23046875V134.2265625L136.40625 140.203125H134.4140625L133.41796875 139.20703125H132.421875L135.41015625 161.12109375H136.40625Q136.40625 156.140625 138.3984375 156.140625V160.125Q138.3984375 165.75 128.4375 186.0234375H129.43359375Q122.40234375 195.69140625 108.515625 203.953125L103.53515625 204.94921875H102.5390625Q78.8671875 204.94921875 72.65625 186.0234375L68.671875 180.046875L69.66796875 179.05078125L68.671875 172.078125V170.0859375Q68.671875 161.82421875 84.609375 141.19921875V142.1953125Q77.28515625 152.0390625 72.65625 164.109375V165.10546875H73.65234375Q77.28515625 150.515625 100.546875 128.25L93.57421875 132.234375H92.578125Q92.578125 127.6640625 111.50390625 125.26171875ZM106.5234375 142.1953125 105.52734375 141.19921875V142.1953125L106.5234375 143.19140625L99.55078125 149.16796875Q91.2890625 149.16796875 83.61328125 177.05859375Q83.61328125 185.02734375 92.578125 191.00390625H93.57421875Q104.47265625 191.00390625 118.4765625 168.09375Q123.45703125 157.1953125 123.45703125 152.15625V144.1875Q123.45703125 141.43359375 113.49609375 140.203125H112.5L111.50390625 141.19921875H110.5078125V140.203125ZM135.41015625 145.18359375H137.40234375V150.1640625H135.41015625ZM84.609375 156.140625 81.62109375 162.1171875H82.6171875L85.60546875 156.140625ZM123.45703125 162.1171875 119.47265625 172.078125H122.4609375L125.44921875 165.10546875L124.453125 162.1171875ZM130.4296875 166.1015625 129.43359375 169.08984375V171.08203125H130.4296875L131.42578125 167.09765625V166.1015625ZM71.66015625 170.0859375V178.0546875H72.65625V170.0859375ZM118.4765625 173.07421875 114.4921875 178.0546875H115.48828125L119.47265625 173.07421875ZM86.6015625 194.98828125V195.984375L91.58203125 198.97265625V197.9765625ZM182.578125 127.1953125 183.45703125 128.19140625H184.453125L184.5703125 127.1953125Q201.03515625 131.4140625 200.21484375 139.1484375L201.50390625 145.125H199.51171875Q199.921875 141.140625 197.9296875 141.140625H196.93359375L197.4609375 146.12109375L197.28515625 147.1171875H195.29296875Q193.30078125 147.1171875 193.65234375 144.12890625L192.5390625 145.125H191.54296875Q186.5625 141.140625 181.9921875 141.140625Q172.03125 141.140625 158.84765625 162.05859375L155.68359375 173.015625Q154.21875 186.2578125 166.58203125 191.94140625L166.34765625 193.93359375H164.35546875L164.23828125 194.9296875H166.23046875Q173.3203125 194.9296875 187.08984375 177.0L187.20703125 176.00390625H186.2109375Q178.30078125 185.5546875 171.73828125 189.94921875H170.7421875L183.10546875 177.0H176.1328125Q176.3671875 175.0078125 173.37890625 175.0078125L172.5 174.01171875L172.6171875 173.015625Q172.79296875 171.0234375 182.87109375 170.02734375L183.10546875 168.03515625L181.9921875 169.03125H176.015625L170.80078125 162.05859375L171.9140625 161.0625L171.97265625 160.06640625L182.87109375 161.0625L209.0625 158.07421875L209.1796875 157.078125Q204.19921875 157.078125 204.43359375 155.0859375H205.4296875L206.30859375 156.08203125L207.421875 155.0859375H208.41796875Q219.0234375 158.1328125 218.7890625 160.06640625L218.73046875 161.0625L217.6171875 162.05859375L217.5 163.0546875H221.484375L221.25 165.046875H220.25390625L204.140625 167.0390625L204.0234375 168.03515625H205.01953125L214.1015625 167.0390625L213.8671875 169.03125Q203.90625 169.03125 203.02734375 177.0L198.28125 192.9375L199.21875 193.93359375L199.1015625 194.9296875L197.51953125 199.91015625L197.6953125 207.87890625L195.52734375 209.87109375L196.34765625 210.8671875Q192.24609375 212.15625 191.89453125 215.84765625H188.90625Q186.9140625 215.84765625 187.8515625 206.8828125H186.85546875L186.09375 213.85546875H183.10546875L183.6328125 208.875L183.3984375 201.90234375H181.40625Q175.72265625 205.88671875 169.98046875 205.88671875H165.0L163.30078125 203.89453125L163.359375 202.8984375H165.3515625L165.46875 201.90234375Q144.78515625 201.90234375 143.0859375 187.95703125Q141.9140625 181.51171875 141.9140625 175.06640625Q141.9140625 171.08203125 142.3828125 167.0390625L142.55859375 165.046875Q143.4375 157.4296875 149.70703125 145.125H150.703125L150.46875 147.1171875L146.71875 154.08984375L146.66015625 155.0859375H147.65625Q148.65234375 146.00390625 167.05078125 132.17578125H168.046875L168.1640625 131.1796875H167.16796875L164.0625 132.17578125Q166.9921875 127.1953125 182.578125 127.1953125ZM162.01171875 133.171875H163.0078125L155.2734375 140.14453125L155.390625 139.1484375ZM176.66015625 135.1640625 176.6015625 136.16015625H183.57421875L183.6328125 135.1640625ZM155.2734375 140.14453125 155.09765625 141.140625 150.703125 145.125 150.8203125 144.12890625ZM199.3359375 156.08203125H203.3203125L201.09375 158.07421875ZM169.74609375 189.94921875H170.7421875L168.57421875 191.94140625H167.578125ZM174.609375 199.91015625 183.046875 195.92578125 183.28125 193.93359375H182.28515625ZM167.34375 202.8984375 167.28515625 203.89453125H172.265625L172.32421875 202.8984375ZM244.1015625 124.08984375Q246.73828125 126.08203125 260.859375 126.08203125L260.80078125 127.078125H253.828125L253.76953125 128.07421875Q266.25 128.07421875 269.35546875 134.05078125L269.23828125 136.04296875H264.2578125L264.19921875 137.0390625L271.11328125 138.03515625L271.0546875 139.03125H265.078125L265.01953125 140.02734375Q268.0078125 140.02734375 267.890625 142.01953125Q250.13671875 142.01953125 236.19140625 154.96875L236.1328125 155.96484375Q255.41015625 161.12109375 266.66015625 178.875L266.6015625 179.87109375Q262.96875 192.76171875 246.26953125 203.77734375L240.17578125 204.7734375L240.1171875 205.76953125H242.109375Q241.9921875 208.46484375 223.828125 211.74609375L223.9453125 209.75390625H228.92578125L229.04296875 208.7578125Q222.65625 208.7578125 217.5 201.78515625Q213.046875 199.5 213.046875 193.0546875Q213.046875 192.46875 213.10546875 191.82421875L216.2109375 189.83203125L219.08203125 191.82421875H221.07421875Q249.19921875 187.4296875 250.078125 173.89453125Q238.30078125 167.91796875 234.4921875 167.91796875L234.43359375 168.9140625L224.6484375 164.9296875L225.5859375 165.92578125L225.52734375 167.91796875Q213.10546875 158.77734375 213.3984375 153.97265625L221.19140625 140.02734375L226.40625 136.04296875L226.2890625 138.03515625ZM230.5078125 150.984375 230.44921875 151.98046875 248.02734375 141.0234375 256.11328125 139.03125 256.23046875 137.0390625H254.23828125Q238.4765625 142.8984375 230.5078125 150.984375ZM236.015625 191.82421875H237.01171875L239.12109375 189.83203125H238.125ZM253.9453125 191.82421875 249.66796875 196.8046875H250.6640625L254.94140625 191.82421875ZM241.46484375 199.79296875V200.7890625H242.4609375L246.62109375 197.80078125ZM230.15625 206.765625 230.09765625 207.76171875H234.08203125L239.12109375 206.765625V205.76953125H238.125ZM325.01953125 125.3203125H326.015625L323.90625 127.4296875H322.91015625ZM337.6171875 125.3203125Q337.44140625 127.4296875 345.1171875 128.484375L345.17578125 127.4296875Q360.87890625 138.328125 360.0 152.0390625L359.58984375 157.4296875Q355.78125 167.390625 341.3671875 184.20703125H345.29296875L345.234375 185.203125L339.31640625 186.31640625L339.19921875 188.484375H340.13671875L345.05859375 187.37109375L345.9375 188.484375L345.99609375 187.37109375L346.93359375 188.484375H349.8046875L350.859375 187.37109375Q356.89453125 188.77734375 359.23828125 192.76171875H362.109375Q360.0 204.48046875 353.61328125 204.48046875Q335.7421875 204.48046875 319.27734375 210.92578125L319.39453125 209.8125L318.33984375 210.92578125Q309.375 210.92578125 303.22265625 205.53515625H300.29296875L300.41015625 204.48046875Q305.5078125 199.79296875 305.80078125 195.92578125L315.0 188.484375H314.0625L303.80859375 197.0390625H301.875L301.9921875 194.87109375Q313.53515625 189.3046875 321.50390625 177.76171875L320.625 176.6484375H321.5625L322.44140625 177.76171875L330.41015625 174.5390625L329.53125 173.484375L329.58984375 172.37109375Q336.62109375 172.37109375 342.421875 154.20703125H340.48828125Q340.1953125 158.484375 336.2109375 160.59375L336.26953125 159.59765625Q341.66015625 151.04296875 341.953125 146.70703125Q342.0703125 144.59765625 336.4453125 142.4296875Q328.53515625 144.59765625 323.4375 148.875H321.50390625L317.6953125 147.76171875L313.76953125 148.875Q308.90625 148.875 309.2578125 143.484375Q319.74609375 128.484375 326.71875 128.484375ZM316.93359375 130.65234375H317.87109375Q308.49609375 140.73046875 308.3203125 143.484375H306.38671875L306.50390625 141.375ZM336.2109375 160.59375 336.09375 161.70703125 332.98828125 164.9296875 333.046875 163.875ZM325.8984375 170.26171875H326.8359375L326.71875 172.37109375L314.58984375 179.87109375H312.65625Z" fill="#ef3340" stroke="#091a2a" stroke-width="5" paint-order="stroke fill"/></svg>